<?xml version="1.0" standalone="no"?>
<!DOCTYPE svg PUBLIC "-//W3C//DTD SVG 20010904//EN"
 "http://www.w3.org/TR/2001/REC-SVG-20010904/DTD/svg10.dtd">
<svg version="1.0" xmlns="http://www.w3.org/2000/svg"
 width="1036.000000pt" height="1036.000000pt" viewBox="0 0 1036.000000 1036.000000"
 preserveAspectRatio="xMidYMid meet">
<metadata>
Created by potrace 1.14, written by Peter Selinger 2001-2017
</metadata>
<g transform="translate(0.000000,1036.000000) scale(0.100000,-0.100000)"
fill="#000000" stroke="none">
<path d="M5138 10341 c-3 -8 -130 -142 -418 -440 -105 -109 -493 -511 -565
-586 -269 -280 -509 -528 -552 -572 -104 -106 -183 -228 -199 -313 -4 -16 -11
-30 -16 -30 -5 0 -7 -4 -4 -9 4 -5 2 -20 -3 -34 -10 -25 -17 -61 -29 -142 -9
-65 -9 -350 0 -437 15 -136 73 -368 92 -368 5 0 55 45 110 99 164 162 541 532
953 938 212 208 444 436 515 506 72 71 133 125 137 122 12 -12 433 -420 524
-508 330 -318 1106 -1069 1168 -1130 16 -16 32 -26 36 -23 8 5 32 48 57 106
71 164 91 540 41 760 -9 36 -18 75 -21 88 -10 50 -58 155 -96 214 -33 50 -248
282 -322 347 -10 9 -39 38 -65 65 -25 26 -133 137 -239 245 -106 108 -345 350
-530 539 -521 531 -536 546 -554 560 -9 7 -18 9 -20 3z"/>
<path d="M5079 8417 c-70 -46 -68 -24 -68 -669 0 -319 -2 -582 -5 -585 -2 -3
-20 10 -39 29 -30 29 -192 179 -268 249 -15 13 -71 64 -124 114 -152 140 -181
154 -259 121 -58 -24 -107 -124 -77 -159 6 -8 8 -16 5 -19 -7 -7 76 -91 209
-213 55 -49 116 -106 137 -125 20 -19 77 -72 126 -117 49 -45 107 -99 130
-120 22 -21 68 -64 103 -95 l62 -57 1 -605 c0 -672 -2 -647 67 -693 40 -27 90
-29 134 -7 77 40 78 48 78 416 l0 319 26 22 c15 12 43 38 63 57 20 19 88 82
150 140 62 58 141 130 174 161 34 31 75 70 92 85 17 16 80 75 140 130 60 56
128 119 151 140 103 96 66 245 -65 258 -56 5 -82 -11 -203 -124 -56 -52 -111
-103 -121 -112 -21 -18 -238 -220 -334 -310 -33 -32 -63 -58 -67 -58 -3 0 -6
388 -6 863 0 474 -2 869 -4 877 -24 96 -129 140 -208 87z"/>
<path d="M2821 7988 c-130 -134 -201 -212 -281 -308 -12 -14 -29 -34 -38 -45
-165 -198 -413 -558 -453 -657 -6 -16 -14 -28 -18 -28 -4 0 -13 -16 -21 -35
-8 -19 -17 -35 -22 -35 -4 0 -8 -4 -8 -10 0 -5 -31 -74 -70 -154 -38 -79 -70
-147 -70 -151 0 -4 -6 -21 -14 -38 -23 -50 -46 -108 -63 -157 -8 -25 -20 -56
-26 -70 -5 -14 -11 -29 -12 -35 -2 -5 -17 -57 -35 -115 -17 -58 -34 -116 -36
-130 -3 -14 -10 -43 -16 -65 -5 -22 -12 -49 -14 -60 -2 -11 -6 -31 -9 -45 -4
-14 -8 -34 -10 -45 -9 -56 -17 -100 -21 -119 -2 -11 -7 -45 -10 -75 -3 -30 -8
-64 -10 -75 -26 -134 -26 -621 0 -831 2 -16 7 -55 10 -85 4 -30 9 -63 12 -73
3 -10 7 -32 10 -50 2 -18 6 -43 9 -57 2 -14 7 -41 10 -60 27 -158 165 -604
221 -714 8 -17 17 -39 19 -49 9 -43 167 -347 274 -529 23 -39 176 -262 198
-288 10 -12 28 -34 40 -48 13 -15 23 -31 23 -35 0 -5 3 -6 8 -3 4 2 6 31 5 63
-2 32 -3 63 -3 68 0 6 2 615 3 1355 3 951 7 1358 15 1390 6 25 13 61 17 80 32
196 135 470 177 470 10 0 171 -92 178 -101 3 -4 5 -861 5 -1904 l0 -1897 26
-27 c29 -29 435 -423 569 -551 47 -45 140 -135 207 -201 67 -65 124 -119 127
-119 3 0 7 835 8 1855 l3 1855 30 -25 c65 -55 321 -279 344 -301 12 -11 14
-289 14 -1900 l0 -1887 91 -95 c50 -52 126 -131 170 -176 121 -126 473 -490
547 -566 l67 -68 0 2537 0 2537 -100 105 c-55 57 -185 192 -289 299 -104 107
-245 254 -315 325 -69 72 -185 191 -257 266 -73 75 -229 236 -347 359 -118
122 -267 275 -330 341 -63 65 -119 125 -125 133 -5 8 -28 41 -50 73 -70 102
-142 244 -179 353 -75 223 -107 475 -84 678 3 28 4 52 3 52 -2 0 -48 -46 -104
-102z"/>
<path d="M7382 7958 c-1 -129 -8 -249 -17 -299 -3 -13 -7 -42 -10 -64 -3 -22
-7 -51 -10 -65 -4 -14 -8 -36 -11 -50 -17 -88 -98 -308 -118 -322 -6 -4 -8 -8
-4 -8 11 0 -98 -189 -122 -210 -3 -3 -21 -25 -40 -50 -42 -54 -70 -88 -90
-109 -8 -9 -44 -50 -80 -90 -36 -41 -117 -127 -180 -191 -432 -439 -1029
-1048 -1281 -1307 l-87 -88 -2 -515 c-1 -391 -9 -1627 -11 -1695 0 -5 0 -37 1
-70 0 -33 -1 -73 -3 -90 -1 -16 1 -42 4 -57 4 -14 5 -29 2 -31 -3 -3 -7 -430
-9 -949 -3 -519 -6 -1104 -7 -1301 -2 -196 -1 -357 2 -357 5 0 132 130 456
466 99 103 233 241 298 308 l117 121 0 145 c1 80 1 372 1 650 l-1 505 149 145
c136 132 502 490 916 895 88 86 301 295 474 463 172 169 383 376 470 460 86
85 260 255 387 378 l230 225 4 52 c8 130 1 517 -10 517 -3 0 -5 10 -6 23 -4
106 -83 496 -110 539 -4 6 -17 0 -29 -13 -13 -13 -80 -78 -150 -144 -70 -66
-163 -155 -207 -197 -44 -43 -81 -78 -82 -78 -1 0 -43 -39 -93 -87 -84 -82
-354 -340 -463 -443 -84 -80 -350 -333 -420 -400 -37 -36 -138 -132 -225 -215
-87 -82 -190 -181 -229 -218 -39 -38 -138 -132 -220 -210 -82 -78 -175 -167
-206 -197 -32 -30 -85 -81 -118 -113 l-61 -58 0 549 -1 549 156 159 c86 87
322 328 525 534 982 1000 921 935 959 1015 18 37 33 72 34 79 1 6 5 20 9 31 3
11 8 31 11 45 3 14 7 36 10 49 26 116 25 408 -1 536 -3 17 -7 41 -9 55 -1 14
-5 36 -8 50 -3 14 -11 50 -18 80 -14 66 -15 69 -18 73 -1 1 -3 9 -5 18 -4 23
-153 320 -178 353 -4 6 -32 49 -63 96 -31 47 -61 87 -65 88 -5 2 -9 8 -9 14 0
9 -61 87 -97 126 -7 7 -13 18 -13 23 0 5 -4 9 -9 9 -5 0 -9 -60 -9 -132z"/>
</g>
</svg>
