<svg width="183" height="259" viewBox="0 0 183 259" fill="none" xmlns="http://www.w3.org/2000/svg">
<path d="M21.5629 189.935C-0.0709522 162.532 -15.9358 107.727 34.5432 57.969C33.8221 63.2573 34.5431 76.4298 43.1967 86.8141L86.4643 131.524V257L65.5516 235.366V140.899L54.7347 131.524V224.549L32.3798 202.915V107.727L27.3319 104.842C26.3704 104.361 23.0051 110.611 21.5629 122.149V189.935Z" fill="white"/>
<path d="M95.1178 257L95.8389 131.524L133.338 93.3042C137.905 87.5352 147.76 80.3239 147.039 57.969C148 59.1709 152.808 64.4591 157.135 74.5549C158.817 79.8432 161.461 96.1887 154.971 102.679L116.03 142.341V171.186L178.768 111.332C180.211 115.659 182.807 127.197 181.653 138.735L116.03 202.915V235.366L95.1178 257Z" fill="white"/>
<path d="M21.5629 189.935C-0.0709522 162.532 -15.9358 107.727 34.5432 57.969C33.8221 63.2573 34.5431 76.4298 43.1967 86.8141L86.4643 131.524V257L65.5516 235.366V140.899L54.7347 131.524V224.549L32.3798 202.915V107.727L27.3319 104.842C26.3704 104.361 23.0051 110.611 21.5629 122.149V189.935Z" stroke="white"/>
<path d="M95.1178 257L95.8389 131.524L133.338 93.3042C137.905 87.5352 147.76 80.3239 147.039 57.969C148 59.1709 152.808 64.4591 157.135 74.5549C158.817 79.8432 161.461 96.1887 154.971 102.679L116.03 142.341V171.186L178.768 111.332C180.211 115.659 182.807 127.197 181.653 138.735L116.03 202.915V235.366L95.1178 257Z" stroke="white"/>
<path d="M90.791 31.2873L48.2445 73.1127C46.0812 67.8244 43.1967 49.3155 51.8502 41.3831L90.791 1L130.453 41.3831C139.107 48.5944 137.664 67.3437 134.059 73.1127L90.791 31.2873Z" fill="white" stroke="white"/>
<path d="M90.791 51.4789V119.265" stroke="white" stroke-width="7" stroke-linecap="round"/>
<path d="M114.636 85.1456C116.052 83.8303 116.134 81.6157 114.819 80.1992C113.503 78.7827 111.289 78.7007 109.872 80.016L114.636 85.1456ZM109.872 80.016L89.6809 98.7653L94.4441 103.895L114.636 85.1456L109.872 80.016Z" fill="white"/>
<path d="M73.6945 67.6563C72.2742 66.3452 70.0599 66.4338 68.7487 67.8542C67.4376 69.2745 67.5262 71.4888 68.9466 72.8L73.6945 67.6563ZM68.9466 72.8L87.6959 90.107L92.4438 84.9634L73.6945 67.6563L68.9466 72.8Z" fill="white"/>
</svg>
