<svg width="524" height="184" viewBox="0 0 524 184" fill="none" xmlns="http://www.w3.org/2000/svg">
<path d="M0 24.5C0 11.2452 7.74517 0 21 0H259.5H503.5C516.755 0 524 11.2452 524 24.5V93.0476C524 106.302 516.755 117.048 503.5 117.048C490.245 117.048 365 117.048 365 117.048C355.139 117.048 345 125.042 345 134.903C345 144.765 337.361 152.759 327.5 152.759H322.5C313.375 152.759 302.972 158.569 297 165.468C289.47 174.167 276.974 183.288 259.5 183C242.576 182.721 229.686 173.803 222.895 165.468C217.145 158.411 209.011 152.759 199.908 152.759H195.26C185.398 152.759 177.404 144.765 177.404 134.903C177.404 125.042 169.41 117.048 159.548 117.048H21C7.74517 117.048 0 106.302 0 93.0476V24.5Z" fill="#93AB97" fill-opacity="0.56"/>
</svg>
