<svg width="320" height="184" viewBox="0 0 320 184" fill="none" xmlns="http://www.w3.org/2000/svg">
<path d="M0 24.5C0 11.2452 2.74547 0 16.0003 0H159.5H304.5C317.755 0 320 11.2452 320 24.5V93.0476C320 106.302 317.755 117.048 304.5 117.048C291.245 117.048 265 117.048 265 117.048C255.139 117.048 245 125.042 245 134.903C245 144.765 237.361 152.759 227.5 152.759H222.5C213.375 152.759 202.972 158.569 197 165.468C189.47 174.167 176.974 183.288 159.5 183C142.576 182.721 129.686 173.803 122.895 165.468C117.145 158.411 109.011 152.759 99.908 152.759H95.2596C85.3982 152.759 77.4038 144.765 77.4038 134.903C77.4038 125.042 69.4096 117.048 59.5482 117.048H16.0003C2.74544 117.048 0.000259399 106.302 0.000259399 93.0476L0 24.5Z" fill="#93AB97" fill-opacity="0.56"/>
</svg>
