<svg width="880" height="159" viewBox="0 0 880 159" fill="none" xmlns="http://www.w3.org/2000/svg">
<path d="M0 24C0 10.7452 10.7452 0 24 0H856C869.255 0 880 10.7452 880 24V68.5476C880 81.8025 869.255 92.5476 856 92.5476H543C533.139 92.5476 523 100.542 523 110.403C523 120.265 515.361 128.259 505.5 128.259H500.5C491.375 128.259 480.972 134.069 475 140.968C467.47 149.667 454.974 158.788 437.5 158.5C420.576 158.221 407.686 149.303 400.895 140.968C395.145 133.911 387.011 128.259 377.908 128.259H373.26C363.398 128.259 355.404 120.265 355.404 110.403C355.404 100.542 347.41 92.5476 337.548 92.5476H24C10.7451 92.5476 0 81.8025 0 68.5476V24Z" fill="#93AB97" fill-opacity="0.56"/>
</svg>
